PathFileType	3	(X/Y/Z)	results
DataRate	CameraRate	NumFrames	NumMarkers	Units	OrigDataRate	OrigDataStartFrame	OrigNumFrames
30.0	30.0	4	85	mm	30.0	1	199
Frame#	Time	head			nose			neck			shoulder_r			elbow_r			wrist_r			shoulder_l			elbow_l			wrist_l			hip_r			knee_r			ankle_r			hip_l			knee_l			ankle_l			heel_r			heel_l			mtoe_r			ltoe_r			mtoe_l			ltoe_l			asis_l			asis_r			psi_r			psi_l			mhnd_r			lhnd_r			mhnd_l			lhnd_l			l_lat_knee			r_med_wrist			l_lat_ankle			r_med_ankle			r_lat_knee			xiphoid			l_med_ankle			r_med_knee			l_med_elbow			navel			r_lat_elbow			r_lat_wrist			l_med_wrist			l_lat_elbow			l_med_knee			r_med_elbow			r_lat_ankle			l_lat_wrist			chin			T10			r_eye			l_eye			l_ear			r_ear			spinal_cord_8			spinal_cord_12			spinal_cord_27			spinal_cord_33			up_arm_r_0			up_arm_r_5			up_arm_l_0			up_arm_l_5			front_torso_11			front_torso_7			front_torso_4			front_torso_1			front_torso_10			thigh_r_2			thigh_r_3			thigh_l_1			thigh_l_5			shank_l_0			shank_l_4			shank_r_1			shank_r_2			foot_r_1			foot_r_3			foot_r_5			foot_r_6			foot_r_7			foot_l_1			foot_l_7			foot_l_0			foot_l_4			foot_l_5			foot_l_6			
		X1	Y1	Z1	X2	Y2	Z2	X3	Y3	Z3	X4	Y4	Z4	X5	Y5	Z5	X6	Y6	Z6	X7	Y7	Z7	X8	Y8	Z8	X9	Y9	Z9	X10	Y10	Z10	X11	Y11	Z11	X12	Y12	Z12	X13	Y13	Z13	X14	Y14	Z14	X15	Y15	Z15	X16	Y16	Z16	X17	Y17	Z17	X18	Y18	Z18	X19	Y19	Z19	X20	Y20	Z20	X21	Y21	Z21	X22	Y22	Z22	X23	Y23	Z23	X24	Y24	Z24	X25	Y25	Z25	X26	Y26	Z26	X27	Y27	Z27	X28	Y28	Z28	X29	Y29	Z29	X30	Y30	Z30	X31	Y31	Z31	X32	Y32	Z32	X33	Y33	Z33	X34	Y34	Z34	X35	Y35	Z35	X36	Y36	Z36	X37	Y37	Z37	X38	Y38	Z38	X39	Y39	Z39	X40	Y40	Z40	X41	Y41	Z41	X42	Y42	Z42	X43	Y43	Z43	X44	Y44	Z44	X45	Y45	Z45	X46	Y46	Z46	X47	Y47	Z47	X48	Y48	Z48	X49	Y49	Z49	X50	Y50	Z50	X51	Y51	Z51	X52	Y52	Z52	X53	Y53	Z53	X54	Y54	Z54	X55	Y55	Z55	X56	Y56	Z56	X57	Y57	Z57	X58	Y58	Z58	X59	Y59	Z59	X60	Y60	Z60	X61	Y61	Z61	X62	Y62	Z62	X63	Y63	Z63	X64	Y64	Z64	X65	Y65	Z65	X66	Y66	Z66	X67	Y67	Z67	X68	Y68	Z68	X69	Y69	Z69	X70	Y70	Z70	X71	Y71	Z71	X72	Y72	Z72	X73	Y73	Z73	X74	Y74	Z74	X75	Y75	Z75	X76	Y76	Z76	X77	Y77	Z77	X78	Y78	Z78	X79	Y79	Z79	X80	Y80	Z80	X81	Y81	Z81	X82	Y82	Z82	X83	Y83	Z83	X84	Y84	Z84	X85	Y85	Z85	
1	0.03333333333333333	-7.185331997183867	1695.2370564563803	-523.8969315110189	-68.09074146286746	1502.4855250877285	-628.2840264583554	29.33357173089285	1351.6517529317853	-498.0432203341544	140.90125741149168	1321.0359967816007	-668.494540304167	209.3608032446286	1056.8584363327982	-701.2708545053016	161.1259975644932	839.2525974624009	-770.2995483937765	-61.60065265039317	1284.8967631454448	-360.6435045044675	-110.97335402395026	1022.66566741266	-328.044207902743	-164.81720704077617	802.6717902037548	-380.1417693448421	114.77316152116148	858.2947878493453	-601.3321847994924	100.5737770461498	496.1441890482747	-665.0383884529743	316.9475195818677	204.35638577733272	-553.5341744086589	-10.876885089921663	840.9971661685447	-449.631528139277	47.25765602415358	478.8953671805926	-471.35754215572484	113.92439905921262	102.23795305364946	-459.46548607271086	351.93882495912686	163.30361309818542	-522.0885295854575	137.9663374357008	35.511759464268735	-444.53570634967787	279.1335849646081	80.28587530142237	-698.6283629801111	347.1413133094103	123.52576864422075	-681.0260156772454	-14.816877220578533	58.661906390220096	-589.0673440113146	-21.66088352882467	17.48774707792817	-507.61981275515643	-77.323241673546	905.5260049978456	-440.0438285009058	109.69481035732942	927.4305536534317	-660.0378863480864	171.476549099261	922.4215134547633	-482.5173730563943	103.52971156528609	914.1243965930053	-411.179382497444	176.79728034006953	769.3044362980376	-785.8993375062929	125.78379944902423	766.4474774799684	-801.9774222316961	-191.34538924143985	732.239983322516	-367.8848150199517	-177.6050543842541	724.3736993532211	-418.9247219383059	28.45825022778918	467.70798860387066	-429.01096349642927	190.27223795251922	842.6871810630201	-770.9974776206031	95.51721005586968	85.46680603647133	-411.277204073858	292.6348592294163	179.88162341195752	-538.8567205178172	129.29572334291663	494.0057114430382	-693.5553032905265	-21.798098615323518	1177.2933280890002	-569.5011125221142	118.16439593935715	90.51004165238868	-491.7297909183828	75.0514368172506	489.8539714186161	-635.8081717945387	-83.47389808243702	1029.5850973758688	-304.33115752146256	-12.71596043274846	957.2927251102516	-583.6209480479755	205.47935725907678	1067.9919894111767	-741.6081929434789	132.74424222783043	849.8807735207689	-758.9190271780514	-183.68294593368796	811.9364159724778	-355.57218093661504	-144.33833112531104	1038.2376551064606	-345.8766582191642	41.84996007477394	479.81140553524705	-517.955113835054	210.59417626381315	1058.969956023891	-662.608655084507	359.00042866081856	202.33148326254792	-579.651486866469	-152.04469057512688	813.6535576651266	-406.31061006109235	-40.93483570742877	1424.093651891281	-617.7807018851552	119.49977704058257	1199.0635532969218	-434.21566351554736	-47.73856178339958	1541.152701888321	-650.0271581811992	-100.68494321421801	1529.5401460405592	-599.8626557048656	-66.09816545679645	1522.8494789867582	-482.3722825465133	67.61822019876094	1548.5559335192036	-604.9689777094388	58.904937330830705	1413.4363885692078	-462.557294703087	107.64017586179767	1298.9166092058483	-429.560477841052	132.1272811461445	1047.801611221846	-459.01997356924625	110.89903014924377	1188.721596345239	-443.37962913685305	129.28207951785726	1180.5107895099998	-698.6200875546793	221.8565482394559	1174.5393916963435	-694.7805760556182	-99.45446125639813	1235.997167952927	-364.243749040365	-75.9047113886564	1096.3381476586894	-300.0634100025268	49.60186375757231	991.8170454351374	-594.2672287891136	-34.5826374528464	1088.825395411242	-593.9031415133112	-79.1892708715413	1216.0979075459322	-520.459555211437	-45.41450773209094	1014.0325478493173	-501.9709606451128	19.6560500168311	1270.566096250408	-640.56486414047	96.72191158132907	661.2350241619542	-622.6210418317104	156.6026968763159	637.1868132720344	-693.7589024487155	43.76909862385	586.9977217308676	-507.20168705872413	-43.72002718547852	729.3415526202964	-373.50182239991454	58.54639767340847	188.06105080539166	-408.08119900638553	91.21387208422007	335.16289328755715	-511.06404724142965	235.135781175964	388.728311607201	-652.1301306191212	183.2339027597781	329.46352734125026	-585.7832611625827	304.9957545080301	90.17284189357382	-694.21796493379	326.41006422230737	106.85794798170534	-692.2740982575004	292.6395342896705	111.4222273888851	-628.6434601770535	319.244144660649	135.8080326323575	-635.7898884698981	351.6896495889599	142.04075993664514	-639.0923493691439	-24.625964203916052	30.146169168282313	-545.1721832148298	34.158778784596905	41.33011662055884	-460.5587077045022	-28.045500330119683	24.837085249820444	-530.7691225030402	-19.967578872172236	36.5811002488499	-562.4811954196491	14.772368496086486	42.8834096977537	-517.8547023681457	52.41375363327071	60.013397868731666	-515.9856271263913	
2	0.06666666666666667	-31.251570146445403	1695.5528699170782	-530.659801771669	-106.22118594969233	1500.9005480039302	-621.4855559321551	6.728152725399922	1351.7167833287504	-501.76200872762865	114.64717313542434	1320.1706809506748	-672.1824192387924	187.43985697563826	1058.3258592256634	-713.2834429256466	131.2728487277897	841.992762376638	-780.2843127829465	-93.43028826136091	1285.0709052205934	-367.9612023856749	-134.5244445600204	1021.7342382454591	-332.8813578364885	-188.4933407947708	800.4324200638698	-378.9626548456146	90.14444766134237	854.993769171495	-604.8031215854764	50.93216757235558	496.38955274915804	-679.1062505477433	266.90486333727125	204.91325908680054	-566.0210027780807	-25.979747335976036	840.6996082511482	-445.3945915121832	34.69898023142497	478.9428851856824	-467.90304443865466	113.74195584608925	104.75071771601819	-454.15120631010143	302.32713939625586	164.30832172583013	-534.620223125875	140.35529144768077	40.125582568897755	-437.756885279465	218.55706539239705	73.82696845702174	-702.413429027058	289.60726096056425	113.87453181981597	-690.0584907465208	-5.859713949063372	49.54487299450057	-590.4018440342918	-13.726737522300358	8.716036835280434	-508.8729028960317	-93.1571735502341	904.1941891248586	-434.14092832407295	80.1073693539028	921.8417492967753	-665.4867913030681	152.28975089241902	924.5028256095152	-491.8831368676849	88.8434968728361	917.4413883009418	-416.3885494451778	144.79518380313988	771.9931310648434	-797.5726280503632	92.69344331725418	769.9381833463814	-809.8293846752719	-212.89027461943937	729.7174728223247	-364.1706753523076	-202.84415348265247	721.5720542177229	-416.0211809387361	14.449612133253742	467.4413270805201	-426.3947737757062	160.33018730599247	845.0584769407745	-783.1231976757931	93.87717058471651	87.15956290217319	-406.8421365653638	242.67053476521377	180.94853294524123	-550.402541951397	79.1022603644715	493.56130059521405	-708.0851642337259	-48.76308230066787	1176.6975712727476	-568.1738798695795	119.76161695126952	93.30800266209872	-486.2344542586413	26.16240797767648	491.03806362532487	-649.0477518041317	-105.55238612985085	1029.2150601688888	-311.17733792890215	-39.76073043041857	956.6491038330789	-581.5809652543674	180.5737506402494	1069.8661851009379	-753.105546861118	103.9619941403433	852.8814220979215	-766.7361491938516	-205.63460253650234	809.6393651283848	-353.13973135426403	-169.42024778685052	1036.595721924478	-348.2151115194729	31.343814130536657	480.38712444112036	-514.6211005896098	191.21552256079858	1059.9765596154543	-674.7637735854795	308.4281313464752	202.00213965352737	-592.8911534977326	-177.87580101085703	811.3578921367871	-406.1002031282861	-81.49690595874512	1422.0113744549478	-608.9055279741598	102.0526232459491	1199.9071018642899	-443.8471903231256	-85.84093805000792	1537.6391768566036	-646.3259303682114	-135.83008041959735	1530.5757819072112	-592.4200664425214	-93.97655803030572	1527.8766160686525	-477.15517511155286	32.39677107725347	1542.2901288446978	-609.0372269685553	38.5645168756782	1413.8471318073282	-468.93940222221426	90.12083281571458	1299.7394053190708	-438.93829715087315	113.4914053696788	1048.5408830759823	-468.59198474045127	92.84436504393196	1189.4718178666558	-452.2863855075913	104.60400374764448	1179.7833541820348	-703.4940944127053	197.34894709059068	1176.2027921435094	-705.9408799138427	-130.35460591728952	1235.3464543411949	-369.0179649308036	-99.17378276232505	1096.1111540850131	-307.21476099006003	21.443330606532378	991.3552190768255	-597.0189598327817	-62.91913484711997	1088.023676456679	-591.0217488928078	-102.5445423375942	1215.5850804612357	-515.2594908185813	-66.5867619968904	1013.7806521072488	-498.0844195472159	-13.097260247734777	1269.6776890223305	-642.6786404822149	59.0389793339754	660.2204349540806	-631.4003327292318	115.46965664688668	634.6753197021582	-704.8009175531071	32.2673172990844	587.4834531020078	-502.88444054303704	-61.27243662601574	728.2234712723495	-371.6048577512471	53.28817621298015	188.4099944889266	-404.9664724955209	85.2447391426138	336.9687193518202	-506.0637836836352	184.7924405156835	388.0471395750041	-666.6533136527053	133.67192904563154	330.5572036234267	-598.1724601590097	245.10353093521636	82.36889420883561	-699.5192617118489	267.53417911680515	97.7832844544656	-699.4377824163291	236.34041616018564	108.88607162550952	-635.2987404013171	264.0929990959602	131.0075350380164	-644.9930286470308	296.71860313720094	134.96127328569068	-649.7260871198117	-15.686249131985297	20.743148427233216	-546.6977198998737	37.41803030250093	37.415007762275415	-459.2783196569403	-19.43409141015279	15.310718158284033	-532.4229121298838	-10.640230522508398	27.370339504183953	-563.8245652030707	21.05419181524365	36.86660344736796	-517.5277889285545	57.05250679889015	56.98908840896089	-513.9207500665992	
3	0.1	-59.492233682983084	1694.928267584327	-536.2752023075399	-142.12023165323407	1498.7325922336565	-616.5195682394217	-16.60186309739381	1351.9028072344481	-506.0840261477869	84.29581711688495	1319.3878841642365	-675.5582862993082	160.81803391624356	1059.6596767412304	-722.8487529698285	101.26942800236291	844.1398945395345	-789.54991624968	-115.70174554647113	1284.5152164196486	-370.0792315776734	-155.88217395784997	1021.2633661580028	-333.3433927337754	-210.4184404184427	800.0411127454003	-379.13785376245494	67.38539322014152	850.5328395410413	-607.2538493378584	-1.856046342055273	498.58377025294857	-691.9913755969358	207.424994657161	199.55850131528203	-586.2736251418855	-37.96993352418625	838.9764525248103	-440.3199216717093	22.90612796521367	477.23338651596845	-464.8173559077077	114.54635433131207	105.98006212062111	-449.66079697921805	243.00570235575805	157.90182617588823	-556.4525648497987	143.70893451041167	43.41537057438535	-432.2401946248812	139.27329952523206	66.24531702538239	-712.0081287744375	214.2596834278363	100.27980550761961	-707.183406559488	1.843057013814875	40.623525855554924	-589.1934127305991	-5.527467770906486	0.23253356084449242	-507.4004101509736	-107.62287475188032	899.5473470907833	-428.04605357477914	50.16225641036019	913.4663792202608	-670.4569845452903	132.45992665545154	928.9782917501639	-502.10592156400446	74.15662730470399	922.7922958026245	-422.49949899001194	113.84711246067255	774.2629934016811	-808.0082020720605	61.29170432398716	772.4861194929637	-818.1971200443172	-234.20820096832588	729.1766808589904	-364.07477349493377	-225.52267426810118	721.3310301649477	-416.21645274324914	2.1791161187738677	465.5747414927776	-423.69203381183087	130.20122473582683	847.1409272446848	-793.5162418727277	94.32128821679918	87.64788280007707	-402.78773005053756	183.14095783764319	176.98847356297338	-568.7685829545226	25.24605409297123	494.8459541267322	-721.8560099511373	-75.4914089719719	1176.4492226410498	-568.2901305267845	121.62517492665242	94.79618318720712	-481.6188632150783	-25.610790440920088	494.1878819613476	-660.9662812031406	-126.31277943740471	1028.7763215901707	-312.47203065918495	-66.57043521891875	956.3811126971476	-581.4264737498237	152.323353169549	1071.5862808650506	-762.2406177701816	74.55811874545756	854.9869089489792	-774.8242019497665	-226.8926356989065	809.0618673784339	-352.81978117209536	-191.18806571668955	1036.1074115896756	-347.7257814204081	20.603201357060495	479.2463691751224	-511.5016696905209	165.9150491103592	1060.874204302938	-684.4652832546448	247.07732273136517	194.30760603392784	-615.5102867032829	-200.558871937674	811.1394544544987	-406.4903735468282	-117.84052303273705	1419.8962667164617	-602.7944687502815	82.65641053346373	1200.628402223789	-453.6349102192654	-122.64250787942402	1534.3495191477668	-643.6152939233122	-169.64647327214044	1529.766454238077	-586.8326308823181	-121.48159090265142	1530.0192201721457	-474.02714244371947	-2.4584272064245503	1538.3021096220884	-613.0800946180151	16.99044853822515	1414.2624876499553	-475.5244999793541	70.70394242977241	1300.4395731582138	-448.3602224498897	93.06728242203555	1049.2058567872812	-478.488667632342	72.97934152939743	1190.1307578027154	-461.44906300040833	75.96565389504939	1179.25376686199	-708.4661169693932	168.61981567335633	1177.6066029468454	-714.2041354150405	-152.65670771115285	1234.8023574766391	-370.00558505826075	-119.80506949937659	1095.6777499661007	-308.82174700250795	-6.561873527559686	991.2262466742156	-600.7544938549642	-90.72693512780076	1087.6422972166633	-589.8930771747347	-126.0259381490328	1215.365467206179	-512.286526597854	-88.37009066349704	1013.7467741580431	-496.6368586399108	-44.83488184816668	1269.2567435475728	-645.2008184789579	20.63849751472964	659.7019775046186	-639.0331406924834	72.33153081524964	632.6385794230882	-715.3222152719194	21.306309789741068	586.2424794800424	-498.86981796794066	-74.52365223114369	725.896537337296	-368.08323746358815	50.22279516849239	187.4314532617312	-401.6939050608243	79.11804083529424	337.1443492889299	-502.00689782664375	127.57714892708671	384.4981743913119	-685.414782140699	78.19315706398888	330.56210538512363	-612.8879006985304	166.6032808317452	72.48156419720011	-711.5214298822514	190.22875814111495	85.76966158756782	-713.9724160133716	165.04738770710776	103.21292217857278	-648.6136317224872	193.80347508734448	122.14209056133183	-661.5873840951147	226.19833423695937	122.83899155815536	-668.8366155972085	-7.205826978527286	11.671610859601737	-545.4206481998228	41.92174731002153	33.076442143766805	-456.716186254568	-10.982348303273938	6.140911746774527	-531.1912064944612	-2.1348784495067994	18.455904376879015	-562.4784803570666	27.39504406535051	30.713621810953004	-515.4057815902873	61.73737889628113	53.41003216199708	-511.01478995054515	
4	0.13333333333333333	-88.3946935449164	1692.3310882416943	-539.8571497308885	-176.13594035605928	1496.1981903944802	-614.6411542289599	-41.54447066395814	1350.7908264261746	-512.029739219952	51.20850722480587	1318.5971944239325	-678.2168267646193	130.7720284664615	1060.629056703236	-729.9165911888032	69.21762441687294	846.1828466629429	-798.2374263044029	-130.81710056292977	1283.8198457187264	-369.04878833578437	-174.8855661680116	1021.5211632328923	-330.024477265942	-230.62681026467106	801.9047507630088	-381.71748942167096	41.85977130014826	848.3227399535676	-612.6266442079972	-54.15992005169862	502.9188088626655	-697.7270562495537	136.26942220853041	184.12955600013498	-617.0983627718479	-53.25685256554167	836.6279305295027	-439.6633808910497	17.443925644168655	476.61585429456784	-462.68840901971294	117.12001684366025	107.43823014402776	-447.54767220366597	170.95876747936117	139.07601249530302	-591.6356439629296	148.591673848789	46.61510672166683	-430.12795136974785	40.57226319114379	58.07953386230763	-732.3402653622179	118.64534220690066	84.29996504687223	-736.9948805968643	3.8033592488746493	33.49175133977099	-583.8554888098279	0.2790115451807018	-5.680834944798104	-501.2180903622386	-124.04586729384762	895.1701499047585	-424.4076517158586	18.955075951235884	909.4452089699454	-675.8035535221504	110.26605428324766	930.8162859443033	-512.8275164184062	56.88539167281448	924.3074405961382	-429.8644911144811	81.17866687306955	776.4393999071589	-817.5887278742454	28.50051407653697	775.0700872901158	-827.1897411357927	-254.39223112884906	730.6699369540651	-368.4727593940795	-246.44660993882326	724.3848072795186	-420.9428610957743	-1.8296668335604018	464.7130697347092	-420.90567497479026	98.11891832844435	849.0628163398934	-802.504484233317	98.6489829060492	89.06309977736804	-399.9726578519977	112.13754159191622	163.80183582288976	-596.8503201683236	-29.50753632198111	498.0807194362789	-729.5016802155799	-101.74633390678164	1174.7468271711925	-571.2394037216344	123.49541792283341	96.15240927421797	-479.6177728416145	-76.13426093518699	499.30194120660286	-665.3232731680705	-144.76451423183352	1028.6154437041823	-309.8056553088433	-92.20578028731858	954.6609456984876	-583.6209590873481	121.82405847674494	1073.0213112051733	-769.0636007908943	42.74004260607615	857.021088499752	-783.0892052603718	-246.7131028882222	810.1621333252452	-354.9133686188904	-210.21177115240675	1036.9161500522857	-343.76341478778244	13.709261468227394	478.06574091163736	-509.3202685279654	136.1426905706999	1061.3452628471282	-691.5579099577549	171.54292966535272	175.41988951436628	-650.7819312231853	-221.11606369962783	813.8030500837488	-408.8564059608957	-152.24137322675818	1417.2485956118192	-600.89124611679	60.276712195051765	1200.2595128540722	-462.43305976819727	-157.2858743329642	1531.2744421443779	-642.862726308724	-202.1894029413997	1527.8867352752939	-584.3234691447169	-149.8546080798509	1528.8747414240881	-473.39515401821507	-36.01084496901355	1534.1854185684358	-616.8602632654386	-7.191914750114485	1413.4635046173842	-482.99363940067184	48.02396242885086	1300.0373715712	-457.21743889174917	70.54577780411567	1048.765920346148	-486.90999785406433	50.37884850997665	1189.6764838798372	-469.84514306440866	44.46905599865744	1178.8651874905286	-713.1372191783177	137.0908284545876	1178.528710857223	-719.5812668258554	-168.63673565740552	1234.7740677013526	-367.9397992999442	-137.00006332424263	1095.4085521176476	-306.6640078553332	-33.100607689300205	989.6962957972809	-605.251632099153	-117.30230262355032	1085.7605657282234	-591.8533717078849	-150.4396168502991	1213.7005038903656	-513.6530194848258	-111.2456973818019	1012.3458871517989	-498.38451142909094	-74.3208731045525	1267.3134755009735	-649.645859005367	-18.48769926613053	661.288952090046	-644.0616329360731	26.248923499617	632.648039693828	-724.0800859849927	11.660649816699681	585.1540904305604	-497.65346744942633	-84.46259578327911	723.2415185737246	-365.4265753999065	52.5533186833542	187.93196349084718	-398.3077241627429	75.42638457614112	337.4169737693092	-500.49694832724714	63.56489547708513	376.9070082413807	-706.3073077067403	18.031308317490115	327.1749106504069	-628.4520726002776	68.25175124916954	61.49675158564079	-735.2080339531202	92.63168231816697	72.2993426077539	-740.6547790037242	77.3743194007777	92.38791106066044	-673.0248911191305	106.1267960665414	108.25178270553629	-689.6133476395102	137.3199240211616	105.62207543367255	-700.6830059795273	-2.794496498895682	4.937559668741237	-539.3889054504976	46.99497994588015	30.53562609400044	-452.17701430358625	-5.976344835948305	-0.5132330517825523	-524.9843069792782	1.5546223105167567	11.654117383506684	-556.671376728156	31.383160527504366	26.31565784824219	-510.48258513697397	64.57318030905282	50.84666238168019	-507.24897793697534	
